<svg width="1200" height="1200" viewBox="0 0 1200 1200" fill="none" xmlns="http://www.w3.org/2000/svg">
<rect width="1200" height="1200" rx="379" fill="white"/>
<path d="M957.362 204.197C728.535 260.695 763.039 192.264 634.41 175.368C451.817 151.501 504.125 315.925 504.125 315.925L630.545 673.497C591.211 654.805 544.287 643.928 494.188 643.928C353.275 643.928 239 729.467 239 834.964C239 940.567 353.137 1026 494.188 1026C635.1 1026 749.375 940.461 749.375 834.964C749.375 832.218 749.237 829.473 749.099 826.727C749.513 825.988 749.789 825.143 750.065 824.087C757.932 789.449 634.272 348.345 634.272 348.345C634.272 348.345 764.971 401.886 860.89 351.936C971.163 294.699 964.953 202.402 957.362 204.197Z" fill="url(#paint0_linear_4_16)" stroke="#29293A" stroke-opacity="0.23"/>
<defs>
<linearGradient id="paint0_linear_4_16" x1="678.412" y1="-1151.29" x2="796.511" y2="832.071" gradientUnits="userSpaceOnUse">
<stop offset="0.572115" stop-color="#B8F1ED"/>
<stop offset="0.9999" stop-color="#B8F1CC"/>
</linearGradient>
</defs>
</svg>
