<?xml version="1.0" standalone="no"?><!DOCTYPE svg PUBLIC "-//W3C//DTD SVG 1.1//EN" "http://www.w3.org/Graphics/SVG/1.1/DTD/svg11.dtd"><svg t="1707478841810" class="icon" viewBox="0 0 1024 1024" version="1.1" xmlns="http://www.w3.org/2000/svg" p-id="1955" xmlns:xlink="http://www.w3.org/1999/xlink" width="200" height="200"><path d="M511.091 960.558c-60.438 0-119.086-11.844-174.313-35.203-53.328-22.556-101.213-54.839-142.329-95.954-41.115-41.114-73.398-89.001-95.954-142.328-23.359-55.228-35.204-113.875-35.204-174.314 0-60.438 11.844-119.086 35.204-174.313 22.555-53.328 54.839-101.213 95.954-142.329 41.115-41.115 89.001-73.398 142.329-95.954 55.228-23.359 113.875-35.204 174.313-35.204 60.439 0 119.086 11.844 174.314 35.204 53.327 22.555 101.214 54.839 142.328 95.954 41.115 41.115 73.398 89.001 95.954 142.329 23.359 55.228 35.203 113.875 35.203 174.313 0 60.439-11.844 119.086-35.203 174.314-22.556 53.327-54.839 101.214-95.954 142.328-41.114 41.115-89.001 73.398-142.328 95.954-55.227 23.359-113.875 35.203-174.314 35.203z m0-831.599c-211.627 0-383.799 172.172-383.799 383.799s172.172 383.799 383.799 383.799S894.89 724.385 894.89 512.758 722.719 128.959 511.091 128.959z" fill="" p-id="1956"></path><path d="M606.587 480.111c8.063 0 16.133 3.028 22.357 9.107 12.643 12.349 12.881 32.609 0.532 45.252L440.485 727.96c-12.348 12.643-32.61 12.88-45.251 0.532-12.644-12.349-12.882-32.609-0.532-45.252l188.99-193.49c6.27-6.418 14.579-9.639 22.895-9.639z" fill="" p-id="1957"></path><path d="M417.406 286.103a31.88 31.88 0 0 1 21.536 8.34l199.984 182.105c13.067 11.898 14.014 32.138 2.115 45.205-11.899 13.066-32.139 14.015-45.205 2.115L395.852 341.763c-13.067-11.898-14.015-32.138-2.115-45.205 6.314-6.933 14.978-10.455 23.669-10.455z" fill="" p-id="1958"></path></svg>