<?xml version="1.0" standalone="no"?><!DOCTYPE svg PUBLIC "-//W3C//DTD SVG 1.1//EN" "http://www.w3.org/Graphics/SVG/1.1/DTD/svg11.dtd"><svg t="1712297085781" class="icon" viewBox="0 0 1083 1024" version="1.1" xmlns="http://www.w3.org/2000/svg" p-id="1487" xmlns:xlink="http://www.w3.org/1999/xlink" width="211.5234375" height="200"><path d="M330.497 482.201c-5.418-2.709-10.836 2.71-18.963 5.418-151.703 51.47-249.227 157.122-295.28 308.825C10.836 820.825 5.418 842.497 0 866.878v59.598c13.545 16.254 32.508 24.381 54.18 13.545 21.672-8.127 18.963-29.799 18.963-46.053 2.709-157.121 102.942-292.571 251.936-346.751 8.127-2.71 18.963-2.71 24.381-10.836 8.127-10.836 21.672-27.09 16.254-37.926-2.709-5.418-24.38-10.836-35.217-16.254z m446.984-195.048C801.862 170.667 734.138 54.18 620.36 13.545 604.106 8.127 590.56 5.418 574.307 0H509.29c-8.127 2.709-13.545 5.418-21.672 5.418-119.196 29.799-197.757 135.45-186.92 262.772 10.835 113.778 111.068 205.884 227.555 214.011 119.196 5.418 224.847-78.56 249.227-195.048zM363.005 246.52c0-102.942 78.561-181.503 178.794-181.503s178.794 78.56 181.503 178.794c0 102.941-75.852 181.502-178.794 181.502-97.524 2.71-181.503-81.27-181.503-178.793z m59.598 297.989V1024h658.286V544.508H422.603zM1024 961.693H484.91V604.106H1024v357.587z" p-id="1488"></path><path d="M715.175 872.296c-29.8-29.799-59.598-54.18-92.106-86.688 29.799-27.09 56.889-54.18 83.979-78.56-13.545-16.254-27.09-29.8-37.926-40.635L544.508 791.026c37.926 40.635 78.56 83.98 119.196 127.323 18.963-16.254 32.508-29.799 51.47-46.053z m94.814 0c13.545 16.254 27.09 29.8 37.926 40.635 43.344-40.635 86.688-81.27 127.323-119.196L850.624 669.122c-10.836 10.836-24.38 24.38-43.344 40.635 29.8 27.09 59.598 54.18 92.106 81.27-35.217 29.798-65.016 56.888-89.397 81.27z" p-id="1489"></path></svg>