<?xml version="1.0" standalone="no"?><!DOCTYPE svg PUBLIC "-//W3C//DTD SVG 1.1//EN" "http://www.w3.org/Graphics/SVG/1.1/DTD/svg11.dtd"><svg t="1691672274890" class="icon" viewBox="0 0 1024 1024" version="1.1" xmlns="http://www.w3.org/2000/svg" p-id="1457" xmlns:xlink="http://www.w3.org/1999/xlink" width="200" height="200"><path d="M1017.383385 897.575385a106.338462 106.338462 0 0 1-106.338462 106.338461H113.033846a106.338462 106.338462 0 0 1-106.338461-106.338461V385.457231a106.338462 106.338462 0 0 1 106.338461-106.338462h798.050462a106.338462 106.338462 0 0 1 106.338461 106.338462v512.039384zM78.375385 879.064615c0 29.341538 23.788308 53.169231 53.16923 53.169231h761.028923a53.169231 53.169231 0 0 0 53.169231-53.169231V403.968a53.169231 53.169231 0 0 0-53.169231-53.169231H131.544615a53.169231 53.169231 0 0 0-53.16923 53.169231v475.017846z" fill="#000000" p-id="1458"></path><path d="M167.266462 532.873846a35.84 35.84 0 0 1 35.84-35.84h24.694153a35.84 35.84 0 1 1 0 71.68h-24.694153a35.84 35.84 0 0 1-35.84-35.84z m186.28923 0a35.84 35.84 0 0 1 35.84-35.84h402.353231a35.84 35.84 0 1 1 0 71.68H389.395692a35.84 35.84 0 0 1-35.84-35.84zM160.137846 288.846769l292.942769-177.112615 37.257847 61.636923L197.395692 350.523077l-37.257846-61.636923z m388.135385-117.208615l37.297231-61.636923 291.328 176.167384-37.257847 61.636923-291.367384-176.167384zM167.266462 752.64a35.84 35.84 0 0 1 35.84-35.84h593.84123a35.84 35.84 0 1 1 0 71.68H203.106462a35.84 35.84 0 0 1-35.84-35.84z" fill="#000000" p-id="1459"></path><path d="M512 228.036923a103.975385 103.975385 0 1 1-0.118154-207.950769A103.975385 103.975385 0 0 1 512 228.036923z m0-136.270769a32.295385 32.295385 0 1 0-0.118154 64.630154 32.295385 32.295385 0 0 0 0.118154-64.59077z" fill="#000000" p-id="1460"></path></svg>