<?xml version="1.0" standalone="no"?><!DOCTYPE svg PUBLIC "-//W3C//DTD SVG 1.1//EN" "http://www.w3.org/Graphics/SVG/1.1/DTD/svg11.dtd"><svg t="1713587055182" class="icon" viewBox="0 0 1024 1024" version="1.1" xmlns="http://www.w3.org/2000/svg" p-id="6043" xmlns:xlink="http://www.w3.org/1999/xlink" width="200" height="200"><path d="M891.9 835.4H851h16.2c13.8-0.8 24.7-12.2 24.7-26.2v26.2zM891.7 264.8v40.9-16.2c-0.8-13.8-12.2-24.7-26.2-24.7h26.2zM132.3 264.8h40.9H157c-13.8 0.8-24.7 12.2-24.7 26.2v-26.2z" fill="#242424" p-id="6044"></path><path d="M765.2 370.1m-40.9 0a40.9 40.9 0 1 0 81.8 0 40.9 40.9 0 1 0-81.8 0Z" fill="#242424" p-id="6045"></path><path d="M973.5 854.4V243.1c-3.7-32.8-30.7-58.5-64.1-60.2H112.1c-34.2 3.2-61.1 31.8-61.6 66.8V877.4c0 0.4 0 0.8 0.1 1.2v0.6c0 0.5 0.1 1.1 0.1 1.6v0.1c0.8 6.7 3.2 12.9 6.8 18.2v0.1c0.3 0.5 0.7 1 1.1 1.5 0.1 0.2 0.3 0.4 0.4 0.5 0.3 0.3 0.5 0.7 0.8 1 0.2 0.2 0.4 0.5 0.6 0.7 0.2 0.3 0.4 0.5 0.7 0.8 0.2 0.2 0.4 0.5 0.7 0.7 0.2 0.3 0.5 0.5 0.7 0.8l0.6 0.6c0.3 0.3 0.6 0.6 0.9 0.8l0.4 0.4c0.4 0.3 0.8 0.7 1.2 1 0.1 0.1 0.2 0.1 0.3 0.2 0.5 0.4 1 0.7 1.5 1.1 3.8 2.8 8.2 4.9 12.9 6.2 0.1 0 0.1 0 0.2 0.1 0.5 0.1 1.1 0.3 1.6 0.4 0.2 0 0.3 0.1 0.5 0.1 0.5 0.1 0.9 0.2 1.4 0.3 0.2 0 0.5 0.1 0.7 0.1 0.4 0.1 0.8 0.1 1.2 0.2 0.3 0 0.6 0.1 0.9 0.1 0.3 0 0.7 0.1 1 0.1 0.4 0 0.7 0.1 1.1 0.1h3.9c0.4 0 0.7 0 1.1-0.1 0.2 0 0.5 0 0.7-0.1 0.5 0 0.9-0.1 1.4-0.1h0.3c5.3-0.6 10.2-2.3 14.7-4.7 0.1 0 0.2-0.1 0.3-0.2 0.5-0.3 0.9-0.5 1.4-0.8 0.4-0.3 0.8-0.5 1.2-0.8 0.1-0.1 0.2-0.2 0.4-0.2 3.1-2.1 6-4.7 8.5-7.7 0.1-0.1 0.1-0.2 0.2-0.3 0.3-0.4 0.6-0.7 0.9-1.1 0.1-0.2 0.3-0.4 0.4-0.6l0.6-0.9 0.6-0.9c0.1-0.2 0.3-0.5 0.4-0.7 0.2-0.4 0.5-0.8 0.7-1.1 0.1-0.1 0.1-0.2 0.2-0.3l233.7-404.8 131.7 228.1c6.4 11 17.1 18 28.7 19.9 17.1 4 35.6-3.4 44.8-19.4l77.8-134.8 82.4 142.8c11.3 19.6 36.4 26.3 55.9 15 19.6-11.3 26.3-36.4 15-55.9L684.4 492.1c-2.6-10.4-9.2-19.9-19.3-25.7-19.6-11.3-44.6-4.6-55.9 15l-79.9 138.4-130.8-226.4c-3.4-7.9-9.2-14.8-17.2-19.4-19.6-11.3-44.6-4.6-55.9 15l-193 334.2V264.8h759.1v570.3H257.3c-22.6 0-41 18.3-41 41s18.3 41 41 41h654.9c32.8-3.3 58.8-29.7 61.3-62.7z" fill="#242424" p-id="6046"></path></svg>