<?xml version="1.0" standalone="no"?><!DOCTYPE svg PUBLIC "-//W3C//DTD SVG 1.1//EN" "http://www.w3.org/Graphics/SVG/1.1/DTD/svg11.dtd"><svg t="1714108928388" class="icon" viewBox="0 0 1024 1024" version="1.1" xmlns="http://www.w3.org/2000/svg" p-id="2339" xmlns:xlink="http://www.w3.org/1999/xlink" width="200" height="200"><path d="M759.5 346.7v40.9-16.2c-0.8-13.8-12.2-24.7-26.2-24.7h26.2zM759.3 807.9h-40.9 16.2c13.8-0.8 24.7-12.2 24.7-26.2v26.2zM883.8 222.6v40.9-16.2c-0.8-13.8-12.2-24.7-26.2-24.7h26.2zM137.3 346.3h40.9H162c-13.8 0.8-24.7 12.2-24.7 26.2v-26.2z" fill="#242424" p-id="2340"></path><path d="M681.6 424.1m-40.9 0a40.9 40.9 0 1 0 81.8 0 40.9 40.9 0 1 0-81.8 0Z" fill="#242424" p-id="2341"></path><path d="M902 140.8H298.1c-22.6 0-41 18.3-41 41s18.3 41 41 41h585.4v467c0 22.6 18.3 41 41 41 22.6 0 41-18.3 41-41V203.3c-2.7-33.6-29.8-60.3-63.5-62.5z" fill="#242424" p-id="2342"></path><path d="M840.9 829.1V325c-4-33.8-32.7-60-67.6-60h-0.5v-0.1h-54.1v-0.1H178.3v0.2h-54.5c-37.6 0-68.1 30.5-68.1 68.1v0.5h-0.1v54.1h-0.1v460.6c0 22.6 18.3 41 41 41 14.9 0 27.9-8 35.1-19.9 1.1-1.4 2.1-2.9 3-4.5l186.9-323.7 101.6 176c1.2 2.1 2.5 4 4 5.7 3.5 7 9 13.1 16.2 17.3 19.6 11.3 44.6 4.6 55.9-15l79.9-138.5 84.8 146.9c11.3 19.6 36.4 26.3 55.9 15 19.6-11.3 26.3-36.4 15-55.9L617.3 488.9c-3.9-6.7-9.3-11.8-15.6-15.3-1-0.7-2.1-1.4-3.2-2.1-19.6-11.3-44.6-4.6-55.9 15l-79 136.9-104.3-180.5c-3.4-7.9-9.2-14.8-17.2-19.4-19.6-11.3-44.6-4.6-55.9 15L137.4 696.2V346.7H759v460.7H258.2c-22.6 0-41 18.3-41 41s18.3 41 41 41h520.9c32.4-2.9 58.2-28.3 61.8-60.3z" fill="#242424" p-id="2343"></path></svg>